<svg viewBox="0 0 30 31" xmlns="http://www.w3.org/2000/svg" xmlns:xlink="http://www.w3.org/1999/xlink"><style>:root&gt;svg{display:none}:root&gt;svg:target{display:block}</style><svg fill="none" viewBox="0 0 23 11" id="down-icon" xmlns="http://www.w3.org/2000/svg"><path d="M21.805 1.788h-20l9.888 8 10.112-8z" stroke="#fff" stroke-width="2" stroke-linecap="round" stroke-linejoin="round"/></svg><svg fill="none" viewBox="0 0 10 7" id="dropdown-icon" xmlns="http://www.w3.org/2000/svg"><path d="M1 1.528l4 4 4-4" stroke="#fff" stroke-width="1.4" stroke-linecap="round"/></svg><svg fill="none" viewBox="0 0 21 21" id="facebook-icon" xmlns="http://www.w3.org/2000/svg"><path fill-rule="evenodd" clip-rule="evenodd" d="M11.502 19.184h-3.99v-9H5.518V7.082h1.994V5.22c0-2.53 1.127-4.036 4.324-4.036h2.662v3.102h-1.663c-1.246 0-1.328.434-1.328 1.244l-.005 1.552h3.016l-.353 3.102h-2.663v9z" fill="#fff"/></svg><svg fill="none" viewBox="0 0 30 31" id="steam-icon" xmlns="http://www.w3.org/2000/svg"><path fill-rule="evenodd" clip-rule="evenodd" d="M15 30.528c8.284 0 15-6.716 15-15 0-8.285-6.716-15-15-15-8.284 0-15 6.715-15 15 0 1.528.228 3.002.653 4.391.109.02.284.064.539.14l-.399-6.273c0-.115.194-.17.372-.221.097-.028.19-.055.243-.089.145-.091 3.124.997 3.283 1.069l3.81 1.723a4.895 4.895 0 013.317-.703l3.463-4.221c.043-3.37 2.792-6.084 6.172-6.09a6.164 6.164 0 016.076 5.575 6.168 6.168 0 01-5.564 6.715l-5.768 4.115a5.114 5.114 0 01-3.39 3.87 5.115 5.115 0 01-6.486-3.205l-2.006-.665c-.149-.047-2.879-1.183-3.618-1.6C2.617 26.13 8.295 30.528 15 30.528zm9.54-19.112a3.084 3.084 0 01-3.086 3.08 3.084 3.084 0 01-3.087-3.08 3.083 3.083 0 013.087-3.08 3.084 3.084 0 013.086 3.08zm-1.027 0a2.057 2.057 0 01-2.059 2.055 2.057 2.057 0 01-2.059-2.055c0-1.135.922-2.055 2.06-2.055 1.136 0 2.058.92 2.058 2.055zM9.828 23.431a3.05 3.05 0 001.335.308c.352 0 .695-.058 1.032-.169a3.08 3.08 0 00.328-5.684.514.514 0 10-.453.924 2.05 2.05 0 01.984 2.816 2.058 2.058 0 01-2.773.88.514.514 0 10-.453.925z" fill="#FFB548"/></svg><svg fill="none" viewBox="0 0 21 21" id="twitch-icon" xmlns="http://www.w3.org/2000/svg"><g clip-path="url(#ea)" fill="#fff"><path fill-rule="evenodd" clip-rule="evenodd" d="M20.518 14.011V1.184H2.74L.518 3.459v12h5.555v3.725h2.445l2.666-2.69h6.667l2.667-2.483zm-13.111-.207H3.85c-.244 0-.444-.186-.444-.413V3.253c0-.228.2-.414.444-.414h14.222c.245 0 .445.186.445.414v7.862a.396.396 0 01-.128.294l-2.444 2.276a.468.468 0 01-.317.12h-4.083L8.1 16.007a.466.466 0 01-.455.026.406.406 0 01-.24-.368v-1.862z"/><path d="M14.073 10.184V6.046h-1.777v4.138h1.777zm-4.444 0V6.046H7.85v4.138h1.78z"/></g><defs><clipPath id="ea"><path fill="#fff" transform="translate(.518 .184)" d="M0 0h20v20H0z"/></clipPath></defs></svg><svg fill="none" viewBox="0 0 21 21" id="twitter-icon" xmlns="http://www.w3.org/2000/svg"><g clip-path="url(#fa)"><path fill-rule="evenodd" clip-rule="evenodd" d="M21.518 4.079a9.056 9.056 0 01-2.474.635c.89-.5 1.572-1.292 1.894-2.234a9.043 9.043 0 01-2.737.98 4.434 4.434 0 00-3.144-1.276c-2.379 0-4.31 1.809-4.31 4.039 0 .317.039.626.113.92-3.58-.168-6.756-1.776-8.88-4.22a3.83 3.83 0 00-.584 2.032c0 1.4.761 2.638 1.917 3.362A4.524 4.524 0 011.36 7.81v.052c0 1.957 1.485 3.589 3.456 3.96a4.692 4.692 0 01-1.945.07c.548 1.603 2.14 2.772 4.024 2.805a9.017 9.017 0 01-5.35 1.728 9.41 9.41 0 01-1.028-.056 12.801 12.801 0 006.604 1.815c7.925 0 12.259-6.156 12.259-11.493 0-.176-.005-.35-.013-.523a8.501 8.501 0 002.15-2.09z" fill="#fff"/></g><defs><clipPath id="fa"><path fill="#fff" transform="translate(.518 .184)" d="M0 0h20v20H0z"/></clipPath></defs></svg><svg fill="none" viewBox="0 0 30 31" id="xbox-icon" xmlns="http://www.w3.org/2000/svg"><path d="M9.914 3.179a22.205 22.205 0 014.552 2.444c.164.111.352.17.54.17a.962.962 0 00.538-.17 22.232 22.232 0 014.553-2.45.935.935 0 00.592-.879.925.925 0 00-.604-.867C16.921.225 13.09.225 9.931 1.427a.944.944 0 00-.018 1.752z" fill="#FFB548"/><path d="M23.502 3.184a.938.938 0 00-1.002-.04 40.927 40.927 0 00-5.045 3.434.942.942 0 00-.064 1.412c3.316 3.159 7.91 12.846 8.965 17.3-2.286-3.868-7.383-12.97-10.717-16.081a.94.94 0 00-1.278 0c-3.34 3.112-8.42 12.22-10.705 16.093C4.711 20.848 9.293 11.149 12.61 7.99a.934.934 0 00-.058-1.412 41.379 41.379 0 00-5.045-3.435.939.939 0 00-1.002.041A14.998 14.998 0 000 15.527a14.86 14.86 0 003.656 9.775A14.868 14.868 0 0015 30.529c4.389 0 8.525-1.904 11.355-5.233A14.86 14.86 0 0030 15.526c0-4.922-2.432-9.535-6.498-12.342z" fill="#FFB548"/></svg><svg fill="none" viewBox="0 0 21 21" id="youtube-icon" xmlns="http://www.w3.org/2000/svg"><g clip-path="url(#ha)"><path d="M16.37 3.184H4.67C2.38 3.184.519 5.025.519 7.292v5.783c0 2.271 1.861 4.109 4.153 4.109h11.694c2.296 0 4.153-1.842 4.153-4.109V7.292c.004-2.267-1.857-4.108-4.149-4.108zm-2.813 7.285l-5.471 2.58a.217.217 0 01-.313-.197V7.528c0-.163.174-.266.317-.193l5.472 2.743a.216.216 0 01-.005.391z" fill="#FF1313"/></g><defs><clipPath id="ha"><path fill="#fff" transform="translate(.518 .184)" d="M0 0h20v20H0z"/></clipPath></defs></svg></svg>